<svg viewBox="0 0 170 233" fill="none" xmlns="http://www.w3.org/2000/svg">
    <path id="Fundo-Branco"
        d="M169.391 23.1127L164.062 20.1161C163.885 20.0099 163.683 19.9533 163.476 19.9523C163.362 19.9532 163.249 19.9716 163.141 20.0069C162.985 20.0517 162.84 20.1282 162.715 20.2316C162.59 20.335 162.488 20.4631 162.415 20.6078L160.917 23.5497L159.668 22.8864L160.964 19.7025C161.088 19.4155 161.094 19.0912 160.982 18.7994C160.87 18.5075 160.647 18.2714 160.363 18.1418L151.966 14.3258C151.809 14.2557 151.638 14.2211 151.466 14.2244C151.319 14.2192 151.173 14.2458 151.037 14.3024C150.887 14.3569 150.75 14.4419 150.635 14.552C150.519 14.6622 150.428 14.7951 150.366 14.9423L144.03 29.6132C143.964 29.7664 143.927 29.9304 143.92 30.097V31.8919L143.475 31.689C143.331 31.606 143.166 31.5629 142.999 31.5641C142.849 31.5627 142.699 31.5947 142.562 31.6578C142.445 31.6992 142.339 31.7658 142.25 31.8529C142.243 31.6313 142.173 31.4164 142.049 31.2328C141.924 31.0492 141.751 30.9044 141.548 30.815L140.612 30.378L141.821 29.3557C141.969 29.2339 142.082 29.075 142.149 28.8953L148.204 14.0683C148.278 13.9166 148.318 13.7502 148.319 13.5814C148.32 13.4127 148.284 13.2457 148.212 13.0928C148.155 12.9456 148.067 12.8123 147.954 12.702C147.841 12.5916 147.705 12.5067 147.557 12.4529L139.987 9.58118C139.854 9.53711 139.714 9.516 139.574 9.51875C139.337 9.51535 139.104 9.58354 138.906 9.71441C138.709 9.84528 138.555 10.0327 138.466 10.2523L137.568 12.4841L138.309 10.143C138.398 9.8321 138.361 9.49892 138.208 9.21441C138.133 9.07261 138.03 8.94758 137.905 8.84694C137.781 8.74631 137.637 8.67219 137.482 8.62913L125.035 5.1643C124.929 5.15191 124.822 5.15191 124.715 5.1643C124.502 5.16526 124.292 5.22174 124.107 5.32818C123.828 5.50686 123.63 5.78656 123.553 6.10855L122.858 8.93347L123.482 6.08513C123.551 5.76858 123.492 5.43781 123.319 5.1643C123.133 4.90155 122.854 4.72001 122.538 4.65707L114.196 2.94806C113.881 2.89782 113.558 2.96741 113.291 3.14315C113.154 3.22743 113.039 3.34134 112.952 3.47642C112.866 3.61151 112.811 3.76431 112.791 3.92352L109.795 19.5699C109.767 19.73 109.767 19.8936 109.795 20.0537L110.154 21.6144L108.164 21.2789C108.094 21.2678 108.023 21.2678 107.953 21.2789C107.684 21.2802 107.424 21.3716 107.213 21.5385C107.002 21.7055 106.853 21.9383 106.79 22.1997L106.111 25.1651H105.916L106.392 22.1529C106.417 21.9975 106.411 21.8388 106.373 21.686C106.336 21.5332 106.268 21.3895 106.174 21.2633C106.083 21.135 105.967 21.0266 105.833 20.9448C105.699 20.8629 105.549 20.8093 105.394 20.7872L103.942 20.5765L104.067 20.4361C104.214 20.2614 104.307 20.0468 104.332 19.8196L106.314 2.79199C106.334 2.63164 106.319 2.46902 106.272 2.31451C106.225 2.16 106.147 2.01698 106.041 1.89457C105.937 1.76847 105.807 1.66528 105.661 1.59144C105.514 1.5176 105.354 1.47468 105.191 1.46536L95.9277 0.76303C95.6186 0.758846 95.3203 0.87713 95.0981 1.09205C94.8759 1.30697 94.7477 1.60108 94.7416 1.91017L94.6479 4.938H94.1016V2.1833V2.07405C94.1382 1.9281 94.1454 1.77632 94.1226 1.62758C94.0998 1.47885 94.0476 1.33615 93.969 1.20784C93.8809 1.04331 93.7617 0.89753 93.6178 0.778641C93.4045 0.622506 93.1485 0.535368 92.8843 0.528923C92.783 0.520307 92.6812 0.520307 92.5799 0.528923H92.4785L77.6047 0.64598C77.4428 0.647863 77.2829 0.682439 77.1347 0.747633C76.9865 0.812828 76.8531 0.907293 76.7423 1.02536C76.6315 1.14343 76.5457 1.28267 76.4901 1.43472C76.4344 1.58676 76.4101 1.74848 76.4185 1.91017L76.559 5.03164H75.685L75.5055 1.86335C75.5005 1.71063 75.4654 1.5604 75.4022 1.42125C75.3391 1.2821 75.2491 1.15676 75.1375 1.05239C75.0259 0.948029 74.8948 0.866685 74.7518 0.813017C74.6087 0.75935 74.4565 0.734409 74.3037 0.73962L65.4934 1.38733C65.3334 1.4016 65.1779 1.44759 65.0358 1.52262C64.8938 1.59765 64.7682 1.70021 64.6662 1.82433C64.5621 1.94438 64.484 2.08476 64.437 2.23655C64.39 2.38835 64.375 2.54826 64.3931 2.70615L66.1567 19.4996C66.1731 19.7089 66.2429 19.9104 66.3596 20.0849L66.7498 20.6312L64.6974 20.9433C64.3883 20.9915 64.1104 21.1592 63.9236 21.4102C63.7367 21.6612 63.656 21.9756 63.6986 22.2856L64.0887 25.1573H63.7922L63.3318 22.0358C63.3088 21.8796 63.254 21.7297 63.1707 21.5955C63.0875 21.4613 62.9776 21.3456 62.8479 21.2555C62.6475 21.1059 62.4035 21.0263 62.1534 21.0292H61.9427L60.0776 21.3569L60.2805 20.5765C60.3192 20.4097 60.3192 20.2362 60.2805 20.0693L57.3229 3.79086C57.2608 3.47508 57.079 3.19552 56.8157 3.01049C56.6211 2.87638 56.3886 2.80802 56.1524 2.8154C56.0722 2.80387 55.9907 2.80387 55.9105 2.8154L47.7479 4.50879C47.5893 4.53908 47.4385 4.60099 47.3045 4.69082C47.1704 4.78065 47.0558 4.89656 46.9675 5.03164C46.8756 5.16138 46.8127 5.30937 46.7831 5.46556C46.7535 5.62176 46.7578 5.7825 46.7958 5.93687L47.5449 9.11296H47.4045L46.6241 5.90565C46.5901 5.74356 46.5226 5.59038 46.4258 5.45598C46.329 5.32158 46.2052 5.20893 46.0623 5.12528C45.8845 5.02212 45.6825 4.96823 45.477 4.96921C45.3583 4.96783 45.24 4.9836 45.1258 5.01603L32.9521 8.69156C32.6528 8.79506 32.4007 9.00281 32.242 9.27684C32.0989 9.55913 32.0656 9.88441 32.1483 10.1899L33.0769 13.2567H32.9989L31.8518 10.2601C31.7684 10.0312 31.6166 9.83345 31.4169 9.69383C31.2173 9.55421 30.9795 9.47946 30.7358 9.47973C30.5904 9.47807 30.4456 9.49913 30.3066 9.54216L22.1986 12.6168C22.0481 12.672 21.9103 12.7572 21.7936 12.8672C21.6769 12.9772 21.5837 13.1097 21.5197 13.2567C21.4067 13.5506 21.4067 13.8759 21.5197 14.1697L27.6066 29.7146C27.6724 29.8908 27.7794 30.0487 27.9187 30.1751L28.3089 30.5106C28.0463 30.6422 27.8428 30.8677 27.7387 31.1423C27.6346 31.417 27.6376 31.7208 27.747 31.9933L28.9488 35.0368L28.6289 35.1928L27.0681 32.1494C26.9733 31.9533 26.8246 31.7882 26.6394 31.6735C26.4543 31.5588 26.2402 31.4992 26.0224 31.5017C25.8428 31.4968 25.6643 31.5314 25.4996 31.6031C25.4845 31.544 25.4636 31.4865 25.4372 31.4315L24.805 30.1282L21.6446 23.4249L21.4651 23.0191L20.037 20.0147C19.6234 19.0704 19.163 18.1184 18.7026 17.1663L18.0237 15.7539C17.888 15.4712 17.6471 15.2528 17.3525 15.1452C17.2035 15.092 17.0455 15.0688 16.8875 15.0768C16.7294 15.0848 16.5746 15.124 16.4317 15.192L9.20551 18.6178C8.92646 18.7532 8.71055 18.9912 8.60292 19.2821C8.4953 19.5729 8.50431 19.8942 8.62805 20.1786L9.90784 22.9411L8.83874 23.5263L7.53554 20.8731C7.46412 20.7277 7.3635 20.5987 7.23997 20.4939C7.11645 20.3892 6.97266 20.3111 6.81759 20.2644C6.70552 20.2217 6.58636 20.2005 6.46642 20.202C6.26159 20.1982 6.05949 20.2494 5.88114 20.3502L0.613665 23.2922C0.476457 23.3671 0.355527 23.4686 0.257918 23.5907C0.160309 23.7128 0.0879821 23.8531 0.0451317 24.0035C0.00228141 24.1538 -0.0102258 24.3112 0.0083377 24.4664C0.0269012 24.6216 0.0761573 24.7716 0.153251 24.9076L5.92799 35.2787L5.99041 35.4113C6.45082 36.3478 7.00488 37.2998 7.55114 38.2675C7.85548 38.7825 8.15203 39.3054 8.44077 39.8282C8.51985 39.9763 8.63089 40.105 8.76587 40.2049C8.90084 40.3048 9.05636 40.3734 9.22114 40.4057L11.5622 40.9675L14.434 44.089C14.5479 44.2085 14.6846 44.304 14.8361 44.3697C14.9876 44.4353 15.1507 44.4699 15.3158 44.4714C15.4625 44.4727 15.6081 44.4462 15.745 44.3933L17.4696 43.7222L18.9133 44.8069L24.0403 55.4824L20.0214 57.6362C19.9587 57.6706 19.8987 57.7097 19.8419 57.7532C18.4919 58.8145 18.3904 60.9839 18.9991 62.6695C19.4674 63.6684 20.2867 65.0106 22.1206 65.0106C22.4557 65.0035 22.7898 64.9696 23.1195 64.9092L24.6802 67.5078C25.6479 69.1388 26.6311 70.7698 27.5832 72.3929C26.854 73.2024 26.4267 74.2389 26.3736 75.3271C26.3769 75.8583 26.4665 76.3854 26.6389 76.8878H21.785C21.4683 76.8919 21.1658 77.0201 20.9426 77.2448C20.7193 77.4695 20.5931 77.7728 20.5911 78.0896V175.253C20.5911 210.596 54.1468 232.477 85.1898 232.477C101.233 232.442 116.79 226.967 129.32 216.948C142.531 206.179 149.796 191.368 149.789 175.253V78.0896C149.786 77.7714 149.66 77.4666 149.437 77.239C149.216 77.0168 148.916 76.8907 148.602 76.8878H143.561C143.644 76.5114 143.673 76.1252 143.647 75.7407C143.623 75.1776 143.448 74.6314 143.138 74.1601C142.829 73.6889 142.398 73.3101 141.891 73.064L146.417 65.1355C146.592 65.1892 146.773 65.2155 146.956 65.2135C148.306 65.2135 149.984 63.9181 150.624 62.3964C150.916 61.6563 150.968 60.8433 150.773 60.0719C150.579 59.3005 150.147 58.6096 149.539 58.0966L148.759 57.5035C148.197 57.1367 147.635 56.7934 147.073 56.4344C146.293 55.9662 145.559 55.5058 144.841 55.0141L151.014 43.9407L152.379 43.3867L155.665 44.011C155.739 44.0261 155.816 44.0261 155.891 44.011C156.068 43.9996 156.24 43.9505 156.396 43.8671C156.552 43.7836 156.689 43.6677 156.796 43.5271L157.975 41.4436L161.931 38.8215C162.098 38.7157 162.237 38.5711 162.337 38.4001L169.852 24.7593C170.004 24.4825 170.041 24.1571 169.954 23.8534C169.868 23.5496 169.666 23.292 169.391 23.1362V23.1127ZM39.195 76.7161L39.9364 76.3494L42.7769 74.9681L44.2128 74.2892L46.3744 73.3528L49.293 72.1744L51.517 71.3316L53.0075 70.84L55.2862 70.0596L57.5727 69.3729L58.353 69.1622L60.7878 68.5847L64.0263 67.9058L65.6573 67.6015L67.2804 67.3205L70.5502 66.8445L73.0161 66.548L73.8433 66.4699L76.3015 66.2514L79.6102 66.0251L81.2724 65.9627L83.7696 65.8925H85.6893L87.6324 65.9549L89.5833 66.0641L91.5733 66.228L92.5721 66.3295L95.5843 66.665L98.6044 67.1254L100.649 67.4766L102.647 67.8434L104.66 68.2414L108.624 69.1076L110.567 69.5758L112.503 70.0752L115.312 70.8088L115.913 71.0117L118.426 71.792L120.884 72.6739L122.671 73.3606L124.489 74.0785L126.83 75.093L128.024 75.6236L130.365 76.7005L39.195 76.7161Z"
        fill="#F1F1F3" />

    <path id="Torres" fill-rule="evenodd" clip-rule="evenodd"
        d="M78.2055 2.54234L78.3694 5.89011L73.773 6.13203L73.5545 2.71402L66.2269 3.19785L66.6171 6.87337L66.7497 7.7708L67.0541 10.7518L67.1243 11.7273L67.4443 14.7863L67.5223 15.6369L67.8032 18.2979L67.9671 19.2032L69.364 21.2087L69.5747 22.1217L69.1923 22.1842L68.6772 22.2856L65.5558 22.7616L65.985 25.9377L62.0051 26.4528L61.4901 23.066L58.1267 23.6435L57.4556 23.7995L57.6819 22.7616L58.2749 20.4674L58.2047 19.609L57.7443 17.065L57.6038 16.1519L57.0342 13.0851L56.9015 12.1174L56.3552 9.15205L56.1602 8.29364L55.5202 4.82101L48.7467 6.20226L49.488 9.64368L45.7032 10.5021L44.9229 7.10749L34.0914 10.346L34.0602 10.2992L35.059 13.5377L31.5006 14.8565L30.2676 11.6258L23.4237 14.2166L24.7036 17.4864L25.0235 18.3838L26.155 21.2633L26.5374 22.0125L27.6221 24.8062L27.8953 25.6412L28.8005 27.9823L29.1282 28.1072V28.2086L30.8528 29.7147L30.7982 31.4549L30.7592 31.4861L29.6121 31.9934L30.8919 35.2319L27.2398 36.5039L25.5542 33.2498L25.4683 33.3044L25.4995 33.6712H25.3903L25.3044 33.7258L25.1952 33.7804L25.1172 33.8273L25.0001 33.8741H24.9221H24.8284L24.7113 33.9287L24.6099 33.9833L24.5241 34.0301H24.4304L24.329 34.077L24.2275 34.1238H24.1417L23.931 34.2174L23.8373 34.2721L23.7515 34.3267H23.6501L23.5564 34.3813H23.4472L23.4237 33.679L23.5174 32.1182L23.174 31.3847L22.7995 30.5653L21.5665 27.9121L21.2231 27.1473L19.9277 24.4238L19.5141 23.5654L18.3124 20.9746L17.8909 20.1162L16.5019 17.182L10.4931 20.0382L10.4853 20.1162L11.8197 23.0192L7.53549 25.4227L6.06839 22.4495L2.00269 24.7048L3.61024 27.5453L4.06284 28.3257L5.4909 30.9009L5.8733 31.7125H5.86549L7.42622 34.4828L7.87104 35.2709L9.19765 37.612L9.66587 38.4158L9.82977 38.7123L12.0772 39.2508L12.8888 39.8283L15.3392 42.4893L17.4695 41.6387L18.3748 42.2162L20.2555 43.6365L20.8095 44.8148L21.1919 45.6186L22.6278 48.6152L23.0414 49.4268L24.329 52.1112L24.7192 52.954L25.9834 55.5371L26.3267 56.4657L25.7804 56.731L25.2108 57.012L24.6802 57.2851L24.1339 57.5738L23.4159 57.8548L22.8697 58.1435L22.3312 58.4322L21.7694 58.7132L21.2231 59.0019L20.6925 59.275V59.314L20.6456 59.3609V59.3999L20.6066 59.4623V59.5169L20.5676 59.595V59.6574V59.7354L20.5286 59.8135V59.8915V59.9851V60.071V60.1724V60.2583V60.3519V60.6563V60.7499V60.9684V61.0621V61.2806V61.3742V61.4757V61.5849V61.6785L20.5676 61.7722V61.8658V61.9517L20.63 62.0999L20.7081 62.2482L20.7939 62.3809L20.872 62.5057L20.9578 62.5994L21.028 62.7086L21.1061 62.7945L21.1919 62.8725L21.2777 62.9505L21.348 62.9896H21.426L21.4962 63.0442H21.5899H21.6601H21.746H21.8318H21.9255H22.1986H22.2922H22.4015H22.5107H22.6044H22.7214H22.8307H22.9321H23.0492L23.174 62.9974H23.2833H23.4003H23.5096L23.9544 62.7398L24.2353 63.528L24.2743 63.5358L24.3212 63.6295L24.3836 63.7231L24.4382 63.8246L24.4851 63.9026L24.5475 64.0118L24.6021 64.0977L24.7738 64.402L24.8362 64.4879L24.8987 64.5815L24.9611 64.7298L25.0469 64.8937L25.1093 64.9639L25.164 65.0731V65.1668L25.242 65.2682L25.3122 65.3541L25.3591 65.4555L25.4059 65.557L25.4683 65.6584L25.5776 65.8457L25.6322 65.9472L25.6946 66.033L25.7493 66.1266L25.7961 66.2281L26.3033 67.0163L27.7314 69.3574L28.1918 70.1533L29.4014 72.2057L29.6433 72.8612L28.9019 73.2202L28.7537 73.306L28.5898 73.4153L28.4649 73.5245L28.3323 73.6494L28.2074 73.7898L28.1059 73.9303L28.0357 74.0708L27.9499 74.2112L27.8796 74.3751L27.8172 74.5312L27.7704 74.7107V74.8668L27.7314 75.0696V75.2257V75.5925V75.772V75.9436V76.1231L27.7938 76.3104L27.8406 76.4899L27.8953 76.6616L27.9577 76.8177L28.0669 76.9893L28.1215 77.1298L28.223 77.2781L28.3323 77.4185L28.4415 77.5356L28.5586 77.6527L28.6756 77.7619L28.8083 77.8634L28.8941 77.9258H31.6332L32.2575 77.5668L32.9442 77.1766L33.631 76.7864L34.3255 76.4197L35.0044 76.0295L35.6911 75.6627L36.37 75.2881L37.0724 74.937L37.7669 74.5702L38.4614 74.2268L39.156 73.8601L39.8583 73.5245L40.5762 73.189L41.2707 72.8612L41.9965 72.5334L42.7066 72.2057L43.4246 71.8857L44.1269 71.5736L44.8448 71.2615L45.5862 70.9571L46.2807 70.6606L47.0143 70.3796L47.7946 70.0831L48.5282 69.8256L49.2539 69.5446L49.9874 69.2715L50.7132 69.014L51.4936 68.7565L52.2739 68.5224L53.0153 68.2648L53.7956 68.0385L54.576 67.8044L55.3564 67.5859L56.1836 67.3596L57.0029 67.1333L57.7833 66.9304L58.6105 66.7275L59.4299 66.5324L60.2493 66.3451L61.0843 66.1657L61.9115 65.994L62.7308 65.8301L63.5736 65.674L64.4008 65.5258L65.1812 65.3853L66.0318 65.2448L66.8512 65.12L67.6862 64.9873L68.5212 64.8859L69.3562 64.761L70.1755 64.6595L71.0183 64.5737L71.8689 64.4801L72.6961 64.3786L73.5311 64.2928L74.3661 64.2303L75.2089 64.1523L76.0439 64.0899L76.9023 64.0275L77.7373 63.9806L78.5957 63.9338H79.4307L80.2813 63.8948L81.1241 63.848H83.1218H84.1285H85.1352H86.1418L87.1563 63.9026L88.1708 63.9572L89.1931 64.0431L90.2076 64.1211L91.2376 64.2069L92.2599 64.324L93.29 64.4332L94.3201 64.5503L95.3346 64.6908L96.3725 64.839L97.3869 64.9873L98.4248 65.1434L99.4471 65.2994L100.469 65.4945L101.484 65.674L102.491 65.8613L103.513 66.0564L104.512 66.2593L105.526 66.4622L106.525 66.6885L107.54 66.8992L108.515 67.1255L109.498 67.3518L110.474 67.6015L111.457 67.8435L112.417 68.0932L113.377 68.3429L114.157 68.5692L114.937 68.7799L115.718 69.0062L116.498 69.2559L117.239 69.4978L118.02 69.7319L118.8 69.9973L119.534 70.2548L120.314 70.5279L121.055 70.7932L121.781 71.0664L122.515 71.3473L123.225 71.636L123.958 71.9404L124.676 72.2135L125.394 72.5257L126.104 72.83L126.83 73.1421L127.533 73.4699L128.953 74.1098L129.679 74.4375L130.365 74.7809L131.075 75.1009L131.778 75.452L132.496 75.7876L133.198 76.1387L133.9 76.4821L134.61 76.8411L135.305 77.2L136.031 77.5512L136.686 77.8946H140.167L140.213 77.8321L140.323 77.6995L140.44 77.5746L140.533 77.481L140.635 77.3717L140.721 77.2781L140.814 77.2L140.877 77.1142L140.955 77.0128L141.009 76.9347L141.072 76.8411L141.134 76.7396V76.6148V76.4665V76.3104V76.1387V75.9124L141.072 75.6939L141.033 75.4988L140.916 75.3038L140.791 75.1399L140.666 74.976L140.51 74.8355L140.354 74.7107L140.198 74.5936L140.011 74.5L139.855 74.4063L139.698 74.3205L139.558 74.2347L139.449 74.1644L139.339 74.102L139.254 74.0396L139.776 72.9002V72.83L139.831 72.7363L139.886 72.6583V72.5725L139.933 72.4944L139.972 72.4086V72.3384L140.034 72.2603L140.081 72.1745L140.143 72.0886V72.0184L140.206 71.9326L140.253 71.8467L140.299 71.7843L140.346 71.6907L140.409 71.6204L140.463 71.5112L140.549 71.3941V71.3083L140.619 71.2458L140.658 71.16L140.705 71.0742L140.76 70.9883L140.799 70.9259L140.838 70.8479V70.8088L141.29 69.966L141.727 69.1857L142.469 67.8981L142.773 67.305L143.249 66.5402L143.912 65.3853L144.615 64.2147L144.982 63.5826L145.083 62.3575L145.863 62.7477L146.566 63.1144H146.628H146.714H146.823H146.932L147.026 63.0754H147.159L147.284 63.0208L147.401 62.9505L147.518 62.8803L147.658 62.7945L147.783 62.7086L147.908 62.615L148.033 62.4979L148.134 62.3965L148.251 62.2794L148.345 62.139L148.439 62.0141L148.524 61.8814L148.595 61.7488L148.673 61.5927L148.727 61.4366V61.2962V61.1479V60.9684V60.8123V60.6407V60.4534L148.657 60.2895L148.579 60.1022L148.47 59.9227L148.345 59.7198L148.204 59.5559L148.134 59.4935L148.017 59.4233L147.877 59.3296L147.721 59.2204L147.533 59.1189L147.338 58.9863L147.135 58.8458L146.73 58.5805L146.417 58.3854L146.168 58.2059L145.902 58.0342L145.621 57.8625L145.356 57.6831L145.075 57.488L144.818 57.3241L144.56 57.1524L144.287 56.9807L144.037 56.8169L143.788 56.6608L143.561 56.4813L143.343 56.3486L143.132 56.216L142.953 56.0911L142.773 55.9663L142.625 55.8648L142.5 55.7712L142.414 55.7087L142.328 55.6385L142.266 55.5917L142.625 54.8503L144.115 52.1893L144.56 51.3933L146.121 48.5216L146.597 47.7724L147.924 45.3611L148.392 44.5027L149.484 42.5361L150.975 41.9275L152.122 41.5529L155.306 42.1772L156.273 40.4838L156.952 39.8283L159.489 38.1427L160.316 37.5418L160.698 37.2843L161.72 35.4738L162.142 34.7169L163.624 32.0168L166.044 27.6702L167.823 24.4082L163.695 22.0671L162.134 25.251L157.577 22.9099L158.895 19.6012L151.724 16.347L150.327 19.5621L149.976 20.3737L148.883 22.8865L148.556 23.7761L147.33 26.5933L146.948 27.3892L145.77 30.1283L145.715 31.1272V33.7882L145.372 34.5842L143.28 33.6712L140.096 32.2431L138.067 31.2755L136.71 30.7526L137.818 30.2142L139.378 28.9031L140.159 28.2398L140.409 28.0213L141.423 25.6568L141.759 24.7672L142.859 22.0359L143.202 21.2399L144.466 18.1185L144.81 17.2835L146.136 14.0059L139.894 11.6258L138.567 14.919L135.149 13.7094L136.218 10.2992L125.121 7.17772L124.341 10.3928L120.767 9.50321L121.461 6.26469L114.438 4.86783L113.829 8.12977L113.689 9.07401L113.041 12.3672L112.823 13.249L112.315 15.9412L112.159 16.8543L111.597 19.7572L111.785 20.6781L112.245 22.7538L112.518 23.7683L112.557 23.9556L108.445 23.2299L107.742 26.3513L103.864 25.7348L104.402 22.4651L101.71 22.0905V22.153L101.187 22.0125L100.407 21.911L101.016 21.1307L102.475 19.3358V19.1876L102.545 18.337L102.865 15.4652L102.951 14.5444L103.341 11.6492L103.411 10.7596L103.794 7.48206L103.895 6.5066L104.285 3.12762L96.4817 2.60477L96.3881 5.89011V5.96035L92.1351 5.79647V2.41748L78.2367 2.51893L78.2055 2.54234ZM49.1446 30.0581L49.3397 30.1595L49.5036 30.261L49.6675 30.3702L49.8314 30.5029L49.9796 30.6277L50.1201 30.7682L50.2684 30.9321L50.3776 31.0804L50.4947 31.2598L50.5961 31.4159L50.6898 31.6188L50.76 31.8139L51.0565 33.0625L51.2438 33.9365L51.5794 35.2397L52.0008 36.9019L52.0554 37.1126L52.3051 38.01L52.43 38.5095L52.8514 40.1248L53.0465 40.8427L53.3586 41.7246V41.7948L53.7878 43.5272L54.0532 44.8851L54.3029 45.7825L53.6083 46.001L53.1245 46.1336L52.6407 46.2897L52.1413 46.4302L51.6574 46.5863L51.1736 46.7267L50.6976 46.8672L50.2294 47.0155L49.7377 47.1637L49.2539 47.312L48.7701 47.4681L48.3019 47.6085L47.8258 47.7646L47.342 47.9285L47.1157 46.9452L46.2963 43.8628L46.0934 42.9653L45.3131 40.1638L45.0321 39.2976L44.1737 36.0513L44.0723 35.1383L43.6353 33.4605V33.242V33.0469V32.8908V32.7191L43.6821 32.5396L43.7289 32.3836L43.7679 32.2275L43.8382 32.0636L43.9006 31.9232L43.9708 31.7749L44.0488 31.6266L44.1269 31.4705L44.9073 30.4639L46.3706 29.7537L48.1536 29.8552L49.1446 30.0581ZM81.8966 27.9121V28.9344L81.8811 29.8942V31.1584V32.805L81.9279 33.679V34.4593V36.1059V36.6834L81.9513 37.5262V37.7291V39.4927L81.9981 40.8896L82.0293 41.8962H85.4473H86.2277H87.0081H87.7884H88.5688H89.3492L89.1619 40.952L89.1775 40.9286V37.6979L89.2243 36.8004V33.7804L89.2321 32.9064V30.0113L89.2789 29.0826V27.4126L89.0916 26.9756L88.9356 26.6167L88.7483 26.2967L88.561 25.9768L88.3191 25.7114L88.1006 25.4851L85.4223 25.0292L82.9111 25.4929L82.7785 25.6022L82.5678 25.8051L82.3727 26.0392L82.2166 26.2655L82.0761 26.5152L81.9591 26.7883L81.8811 27.0068H81.7484L81.8654 27.4517L81.7484 27.9121H81.8966ZM118.753 33.8116V33.7414V33.6009V33.4839V33.3668V33.2264V33.1015V32.9767V32.8518V32.7191V32.5865V32.446L118.792 32.3289L118.831 32.1807L118.87 32.0636L118.917 31.9154L118.972 31.7827L119.042 31.6734L119.105 31.5564L119.237 31.3067L119.424 31.0726L119.62 30.8619L119.846 30.6902L120.064 30.5029L120.322 30.3546L120.587 30.222H120.899L123.592 30.5107L125.816 31.65L125.902 31.7905V31.7827L126.05 32.1026L126.159 32.4382L126.284 32.7738L126.354 33.1561L126.401 33.6322L125.839 35.8016L125.636 36.6756L124.856 39.5864L124.848 39.5942L124.645 40.4682L123.865 43.418L123.631 44.2686L122.889 47.1247L122.897 47.1793L122.132 47.7568L121.672 47.6085L121.212 47.4759L120.736 47.3354L120.283 47.2027L119.822 47.0701L119.37 46.9374L118.909 46.8126L118.457 46.6721L117.989 46.555L117.528 46.4302L117.083 46.2897L116.615 46.1727L116.163 46.0556L116.155 45.1972L116.451 43.8238L116.81 42.263L116.974 41.4202L117.224 40.4213L117.676 38.4626L117.879 37.5496L117.965 37.1048L118.348 35.4192L118.527 34.6388L118.753 33.8116Z"
        fill="black" />

    <g id="ALO-PREFEITURA">
        <path id="PREFEITURA"
            d="M25.1899 136.907H31.4153C35.0177 136.907 36.2503 139.567 36.2503 142.228C36.2503 145.913 34.005 147.577 30.6517 147.577H28.7509V154.666H25.1982V136.907H25.1899ZM136.138 136.907H140.529L145.19 154.674H141.488L140.658 150.914H135.989L135.159 154.674H131.453L136.122 136.907H136.138ZM136.603 147.98H140.056L138.342 139.991H138.292L136.591 147.976L136.603 147.98ZM118.633 136.907H125.194C128.099 136.907 129.88 138.455 129.88 141.472C129.88 143.838 128.942 145.432 126.945 145.855V145.905C129.361 146.224 129.73 147.565 129.78 151.325C129.805 153.193 129.905 154.16 130.569 154.508V154.658H126.721C126.4 154.091 126.246 153.445 126.277 152.794L126.178 149.387C126.128 147.992 125.514 147.146 124.082 147.146H122.181V154.658H118.633V136.895V136.907ZM122.181 144.672H123.659C125.364 144.672 126.327 143.925 126.327 142.008C126.327 140.368 125.464 139.547 123.862 139.547H122.181V144.672ZM108.979 136.911V149.3C108.979 151.064 109.394 152.383 111.054 152.383C112.714 152.383 113.129 151.064 113.129 149.3V136.907H116.682V149.296C116.682 153.819 113.943 155.015 111.054 155.015C108.166 155.015 105.427 154.043 105.427 149.296V136.907L108.979 136.911ZM103.451 136.911V139.845H99.6037V154.67H96.0511V139.841H92.1997V136.907L103.451 136.911ZM86.6882 136.911H90.2449V154.67H86.6882V136.907V136.911ZM84.721 136.911V139.845H78.4292V144.025H84.3474V146.959H78.4292V151.736H84.9658V154.67H74.8725V136.907L84.721 136.911ZM63.0567 136.911H72.9011V139.845H66.6093V144.025H72.5317V146.959H66.6093V154.67H63.0567V136.907V136.911ZM61.0937 136.911V139.845H54.8019V144.025H60.7326V146.959H54.8019V151.736H61.3385V154.67H51.2493V136.907L61.0937 136.911ZM38.1304 136.911H44.6878C47.5929 136.911 49.3775 138.459 49.3775 141.477C49.3775 143.842 48.4437 145.436 46.4433 145.859V145.909C48.8629 146.229 49.2323 147.569 49.2779 151.329C49.307 153.197 49.4066 154.164 50.0706 154.512V154.662H46.2068C45.8872 154.095 45.7347 153.449 45.7668 152.798L45.6672 149.391C45.6174 147.997 44.999 147.15 43.5672 147.15H41.683V154.662H38.1304V136.899V136.911ZM41.683 144.676H43.1605C44.8662 144.676 45.8291 143.929 45.8291 142.012C45.8291 140.373 44.9617 139.551 43.3597 139.551H41.6996V144.676H41.683ZM28.7426 144.946H30.3196C31.7266 144.946 32.6894 144.116 32.6894 142.286C32.6894 140.547 32.0005 139.551 30.2242 139.551H28.7426V144.946Z"
            fill="black" />

        <g id="ALO">
            <path
                d="M98.7625 111.275C103.995 111.275 104.648 115.04 104.648 120.335C104.648 125.629 103.995 129.395 98.7625 129.395C93.5296 129.395 92.8768 125.635 92.8768 120.335C92.8768 115.035 93.5351 111.275 98.7625 111.275ZM98.7625 126.806C100.827 126.806 101.161 125.021 101.161 120.335C101.161 115.649 100.827 113.863 98.7625 113.863C96.6983 113.863 96.3692 115.676 96.3692 120.335C96.3692 124.993 96.7039 126.806 98.7625 126.806ZM82.2213 129.038V111.621H85.7081V126.176H91.8838V129.054L82.2213 129.038Z"
                fill="black" />

            <path
                d="M70.9627 111.621H75.3537L80.0144 129.038H76.3124L75.4823 125.628H70.8133L69.9833 129.038H66.2771L70.9461 111.621H70.9627ZM71.4275 122.693H74.8805L73.1665 114.704H73.1167L71.4151 122.689L71.4275 122.693Z"
                fill="black" />

            <path
                d="M94.623 110.524L98.7625 107.522L102.863 110.524H100.3L98.7625 109.023L97.1514 110.524H94.623Z"
                fill="black" />
        </g>
    </g>

    <path id="Telefone"
        d="M95.0301 197.853C95.8195 198.141 100.053 200.224 100.914 200.655C101.775 201.086 102.349 201.301 102.564 201.661C102.78 202.02 102.78 203.744 102.062 205.755C101.345 207.767 97.9043 209.603 96.2498 209.85C94.7662 210.072 92.8889 210.164 90.826 209.509C89.5755 209.112 87.9714 208.582 85.9169 207.695C77.2784 203.965 71.6368 195.267 71.2063 194.692L71.1992 194.682C70.7428 194.073 67.6899 190 67.6899 185.784C67.6899 181.545 69.9145 179.462 70.7039 178.6C71.4932 177.738 72.4262 177.522 73.0003 177.522C73.5742 177.522 74.1489 177.528 74.6506 177.553C75.1792 177.579 75.8892 177.352 76.5882 179.031C77.3057 180.755 79.0279 184.994 79.2432 185.425C79.4586 185.856 79.602 186.359 79.315 186.934C79.0279 187.508 78.8845 187.867 78.4538 188.37C78.0234 188.873 77.5496 189.493 77.1622 189.879C76.7311 190.308 76.2823 190.774 76.7845 191.636C77.2868 192.499 79.015 195.318 81.5751 197.602C84.8642 200.536 87.6389 201.445 88.5002 201.876C89.3612 202.307 89.8635 202.235 90.3657 201.661C90.8683 201.086 92.5184 199.146 93.0925 198.284C93.6666 197.422 94.2407 197.566 95.0301 197.853Z"
        fill="black" />
</svg>
